HIERARCHY
ROOT Hips
{
	OFFSET 0.000000 0.000000 0.000000
	CHANNELS 6 Xposition Yposition Zposition Zrotation Yrotation Xrotation 
	JOINT LeftUpLeg_virtual
	{
		OFFSET 0.000000 0.000000 0.000000
		CHANNELS 3 Zrotation Yrotation Xrotation
		JOINT LeftUpLeg
		{
			OFFSET 8.479694 -4.795517 -0.379053
			CHANNELS 3 Zrotation Yrotation Xrotation
			JOINT LeftLeg
			{
				OFFSET 0.485052 -32.551468 0.112863
				CHANNELS 3 Zrotation Yrotation Xrotation
				JOINT LeftFoot
				{
					OFFSET 0.438033 -32.635670 -3.012641
					CHANNELS 3 Zrotation Yrotation Xrotation
					JOINT LeftToeBase
					{
						OFFSET 0.970169 -13.225353 11.864223
						CHANNELS 3 Zrotation Yrotation Xrotation
						End Site
						{
							OFFSET 0.000000 0.000000 0.000000
						}
					}
				}
			}
		}
	}
	JOINT RightUpLeg_virtual
	{
		OFFSET 0.000000 0.000000 0.000000
		CHANNELS 3 Zrotation Yrotation Xrotation
		JOINT RightUpLeg
		{
			OFFSET -8.479694 -4.795517 -0.379053
			CHANNELS 3 Zrotation Yrotation Xrotation
			JOINT RightLeg
			{
				OFFSET -0.484100 -32.551483 0.112903
				CHANNELS 3 Zrotation Yrotation Xrotation
				JOINT RightFoot
				{
					OFFSET -0.438985 -32.635651 -3.012681
					CHANNELS 3 Zrotation Yrotation Xrotation
					JOINT RightToeBase
					{
						OFFSET -0.970169 -13.225354 11.864223
						CHANNELS 3 Zrotation Yrotation Xrotation
						End Site
						{
							OFFSET 0.000000 0.000000 0.000000
						}
					}
				}
			}
		}
	}
	JOINT Spine_virtual
	{
		OFFSET 0.000000 0.000000 0.000000
		CHANNELS 3 Zrotation Yrotation Xrotation
		JOINT Spine
		{
			OFFSET 0.000000 7.722015 1.166203
			CHANNELS 3 Zrotation Yrotation Xrotation
			JOINT Spine1
			{
				OFFSET 0.000000 12.024086 0.248766
				CHANNELS 3 Zrotation Yrotation Xrotation
				JOINT Spine2
				{
					OFFSET -0.000000 11.503036 -0.491240
					CHANNELS 3 Zrotation Yrotation Xrotation
					JOINT Neck_virtual
					{
						OFFSET 0.000000 0.000000 0.000000
						CHANNELS 3 Zrotation Yrotation Xrotation
						JOINT Neck
						{
							OFFSET 0.000000 18.430687 -3.123054
							CHANNELS 3 Zrotation Yrotation Xrotation
							JOINT Head
							{
								OFFSET -0.000000 9.051071 1.034021
								CHANNELS 3 Zrotation Yrotation Xrotation
								End Site
								{
									OFFSET 0.000000 0.000000 0.000000
								}
							}
						}
					}
					JOINT LeftShoulder_virtual
					{
						OFFSET 0.000000 0.000000 0.000000
						CHANNELS 3 Zrotation Yrotation Xrotation
						JOINT LeftShoulder
						{
							OFFSET 6.197824 13.665230 -4.064723
							CHANNELS 3 Zrotation Yrotation Xrotation
							JOINT LeftArm
							{
								OFFSET 7.778132 -0.187073 -1.709282
								CHANNELS 3 Zrotation Yrotation Xrotation
								JOINT LeftForeArm
								{
									OFFSET 21.954697 0.000000 -2.041093
									CHANNELS 3 Zrotation Yrotation Xrotation
									JOINT LeftHand
									{
										OFFSET 22.992908 0.000000 -0.870901
										CHANNELS 3 Zrotation Yrotation Xrotation
										End Site
										{
											OFFSET 0.000000 0.000000 0.000000
										}
									}
								}
							}
						}
					}
					JOINT RightShoulder_virtual
					{
						OFFSET 0.000000 0.000000 0.000000
						CHANNELS 3 Zrotation Yrotation Xrotation
						JOINT RightShoulder
						{
							OFFSET -6.197824 13.665230 -4.064723
							CHANNELS 3 Zrotation Yrotation Xrotation
							JOINT RightArm
							{
								OFFSET -7.778132 -0.187073 -1.709282
								CHANNELS 3 Zrotation Yrotation Xrotation
								JOINT RightForeArm
								{
									OFFSET -21.954697 0.000000 -2.041093
									CHANNELS 3 Zrotation Yrotation Xrotation
									JOINT RightHand
									{
										OFFSET -22.992908 0.000000 -0.870901
										CHANNELS 3 Zrotation Yrotation Xrotation
										End Site
										{
											OFFSET 0.000000 0.000000 0.000000
										}
									}
								}
							}
						}
					}
				}
			}
		}
	}
}
MOTION
Frames: 10
Frame Time: 0.033333
-10.318727 64.244904 -27.005798 -179.889861 -4.297478 179.942823 1.449725 -2.789617 -1.193050 -1.197781 8.722471 -67.067902 8.236207 2.343976 75.998402 -4.867583 -9.865311 -14.220215 0.000000 0.000000 0.000000 1.174005 -0.196219 2.241669 1.362325 -10.741708 -72.139160 2.282686 3.697604 74.832345 4.379186 3.313194 -7.313489 0.000000 0.000000 0.000000 2.106892 1.236046 -6.525469 -3.957967 -2.229514 6.509858 0.877494 -0.042473 8.426172 -0.023640 -0.008593 -0.024910 0.529476 0.387659 10.094702 2.929067 -0.118504 -3.902983 0.000000 0.000000 0.000000 1.910826 0.957356 7.029052 -8.932864 -6.998670 2.916063 -56.114355 -12.710194 27.271755 6.728454 -64.619655 0.145472 0.000000 0.000000 0.000000 -1.480979 2.357203 6.150272 18.051025 1.856357 -3.108311 23.255426 56.940910 -28.809219 179.836845 58.398800 -178.160949 0.000000 0.000000 0.000000 
-10.425970 64.261879 -27.122826 -179.931539 -4.503238 -179.984828 1.436878 -2.668286 -0.914521 -1.660387 9.047480 -67.401359 8.400525 2.340403 76.197877 -4.622503 -9.120634 -14.921271 0.000000 0.000000 0.000000 0.974028 -0.212104 2.621979 0.958491 -11.364397 -72.669251 2.609392 3.984670 76.586105 4.546645 3.654247 -9.291932 0.000000 0.000000 0.000000 2.159321 1.230564 -6.476983 -3.999270 -2.216834 6.348274 0.947942 -0.080351 8.529544 -0.017729 -0.021423 0.018606 0.586569 0.377695 10.101913 3.167834 -0.081106 -3.779150 0.000000 0.000000 0.000000 1.968727 0.970538 6.980388 -8.989977 -6.808455 2.723980 -57.551966 -13.554283 26.674380 6.511285 -63.607038 0.085067 0.000000 0.000000 0.000000 -1.410893 2.348709 6.158118 17.874945 1.826546 -2.781850 23.380069 58.130845 -27.327133 179.554199 58.711917 -178.093194 0.000000 0.000000 0.000000 
-10.472920 64.281403 -27.242302 -179.933670 -4.692947 -179.875532 1.458888 -2.643916 -0.632812 -2.037053 9.254124 -67.792489 8.266140 2.267014 76.354152 -4.548231 -8.852264 -15.695056 0.000000 0.000000 0.000000 0.872115 -0.292772 2.961067 0.868713 -11.994546 -73.294876 2.929608 4.112587 78.136927 4.389085 3.616471 -10.856620 0.000000 0.000000 0.000000 2.193658 1.188399 -6.462024 -3.991983 -2.160839 6.188142 1.017532 -0.059435 8.550233 -0.024635 0.016573 0.003927 0.630361 0.297559 10.258775 3.401045 -0.083035 -3.694774 0.000000 0.000000 0.000000 2.003098 0.870878 7.097234 -8.926806 -6.686196 2.731506 -58.677192 -14.470048 26.291358 6.516694 -62.752308 -0.164365 0.000000 0.000000 0.000000 -1.382541 2.332174 6.215421 17.631498 1.802769 -2.495418 23.153353 59.115185 -26.330857 179.443345 58.853951 -178.000877 0.000000 0.000000 0.000000 
-10.458775 64.292374 -27.323765 -179.959379 -4.850106 -179.982506 1.426931 -2.591675 -0.306606 -2.272590 9.308824 -67.996446 8.148480 2.162279 76.515768 -4.458533 -8.777298 -16.432452 0.000000 0.000000 0.000000 0.871145 -0.369216 3.307972 1.031471 -12.687595 -73.800078 3.055378 4.112610 79.132584 4.069752 3.297406 -11.307550 0.000000 0.000000 0.000000 2.147897 1.142454 -6.275000 -4.027102 -2.222375 6.109013 1.082107 -0.049213 8.597967 -0.017754 0.022750 -0.002643 0.678651 0.296974 10.314815 3.557817 -0.043346 -3.656696 0.000000 0.000000 0.000000 2.053323 0.976610 7.150182 -8.758059 -6.447976 2.723157 -59.317379 -15.184538 26.440658 6.713164 -62.137407 -0.534744 0.000000 0.000000 0.000000 -1.297042 2.311715 6.297421 17.302452 1.987512 -2.200111 22.630247 59.999524 -25.970428 179.407172 58.818843 -177.904626 0.000000 0.000000 0.000000 
-10.370722 64.297859 -27.343523 -179.955745 -4.982751 179.921144 1.396075 -2.489458 -0.020367 -2.363092 9.340577 -68.192151 8.095244 2.058821 76.625953 -4.313213 -8.721953 -16.599241 0.000000 0.000000 0.000000 0.879838 -0.389734 3.588629 1.319845 -13.232141 -74.155623 3.072589 3.940920 79.409828 3.757688 2.897550 -11.205467 0.000000 0.000000 0.000000 2.074969 1.318347 -5.994819 -4.044390 -2.095789 6.009269 1.168935 -0.102769 8.604008 0.029637 -0.015441 -0.019174 0.688305 0.234854 10.400069 3.729483 -0.022032 -3.658233 0.000000 0.000000 0.000000 2.062524 0.904938 7.188760 -8.386855 -6.434209 2.698173 -59.542229 -15.483660 26.798575 6.624666 -61.815787 -0.490976 0.000000 0.000000 0.000000 -1.315279 2.308195 6.329804 17.036232 1.937004 -1.995830 21.946023 60.731146 -26.073955 179.489394 58.521191 -177.810779 0.000000 0.000000 0.000000 
-10.269080 64.287117 -27.319208 179.994008 -5.076209 179.958136 1.302292 -2.441599 0.101447 -2.368096 9.409625 -68.403504 8.068337 2.047252 76.638035 -4.175190 -8.755915 -16.388914 0.000000 0.000000 0.000000 0.813780 -0.317533 3.710232 1.658534 -13.722069 -74.451070 3.068195 3.846060 79.439273 3.623992 2.674012 -11.165307 0.000000 0.000000 0.000000 1.930120 1.425117 -5.777056 -4.099388 -2.059173 5.893652 1.208555 -0.056557 8.602091 0.018226 0.021670 -0.022879 0.789594 0.370786 10.494486 3.861371 -0.046943 -3.729761 0.000000 0.000000 0.000000 2.139547 0.816870 7.268918 -7.995815 -6.396991 2.795396 -59.405789 -15.762856 27.609272 6.680498 -61.641515 -0.518536 0.000000 0.000000 0.000000 -1.244134 2.339768 6.414307 16.894326 1.960529 -1.752692 21.169505 61.148532 -26.490796 179.684614 58.057229 -177.675514 0.000000 0.000000 0.000000 
-10.177282 64.272522 -27.253843 179.887129 -5.078381 179.929968 1.140797 -2.387003 0.164897 -2.200517 9.414011 -68.449615 8.101828 2.078903 76.564180 -4.023073 -8.922016 -16.209379 0.000000 0.000000 0.000000 0.655364 -0.298068 3.713074 1.929634 -14.051695 -74.463207 3.051747 3.715760 79.340099 3.736977 2.713963 -11.197883 0.000000 0.000000 0.000000 1.706045 1.466954 -5.599160 -4.170525 -2.023660 5.871750 1.207974 -0.047712 8.631880 -0.004570 -0.008469 -0.006238 0.890819 0.413873 10.504787 3.858372 0.053731 -3.764448 0.000000 0.000000 0.000000 2.231385 0.946485 7.281631 -7.578506 -6.536599 2.895907 -58.899344 -16.072789 28.499241 6.845454 -61.571615 -0.583721 0.000000 0.000000 0.000000 -1.145716 2.433065 6.457068 16.796313 1.992145 -1.608680 20.488624 61.239244 -27.056090 179.856161 57.626504 -177.604904 0.000000 0.000000 0.000000 
-10.108885 64.243279 -27.159998 179.970362 -5.219853 179.953259 1.142890 -2.724188 0.077222 -1.842780 9.344545 -68.437143 8.132114 2.201043 76.521451 -4.015309 -8.960652 -16.194963 0.000000 0.000000 0.000000 0.513362 -0.477479 3.673760 1.908490 -14.207926 -74.030583 3.289410 3.931367 78.527190 4.574769 3.542249 -10.883206 0.000000 0.000000 0.000000 1.611777 1.422443 -5.618034 -4.114469 -1.951701 5.914565 1.250370 -0.087257 8.646392 0.018126 -0.068861 0.022436 0.867415 0.390025 10.522051 3.773384 0.161703 -3.816699 0.000000 0.000000 0.000000 2.186871 1.008548 7.402144 -7.215367 -6.752328 3.015406 -58.336291 -16.495745 29.419445 6.928770 -61.425223 -0.503330 0.000000 0.000000 0.000000 -1.150468 2.310803 6.573090 16.813294 2.144651 -1.448297 19.908880 60.982586 -27.637329 179.912182 57.283933 -177.673219 0.000000 0.000000 0.000000 
-10.089309 64.213516 -27.075878 179.952918 -5.143550 179.980607 1.007622 -2.821692 -0.097165 -1.649632 9.210171 -68.294501 8.287407 2.029214 76.457616 -4.182166 -9.095693 -16.151789 0.000000 0.000000 0.000000 0.362884 -0.628493 3.493749 1.761663 -14.159617 -73.364831 3.295836 4.123849 77.072415 4.968425 3.785286 -10.062795 0.000000 0.000000 0.000000 1.448058 1.082276 -5.763602 -4.059994 -1.969288 5.987061 1.201295 0.085804 8.641052 0.064529 0.076110 -0.014889 0.828130 0.456445 10.589767 3.575960 0.200354 -3.819438 0.000000 0.000000 0.000000 2.145320 0.992207 7.489220 -7.008952 -6.878781 3.077983 -57.799130 -16.909463 30.223198 6.871257 -61.200250 -0.247667 0.000000 0.000000 0.000000 -1.214083 2.401473 6.623379 16.994016 2.122793 -1.440834 19.871107 60.385265 -27.500626 -179.843963 57.075011 -177.577719 0.000000 0.000000 0.000000 
-10.083080 64.182755 -27.009018 179.981714 -5.029443 179.973504 0.824743 -3.092733 -0.188843 -1.437885 9.262808 -67.789723 8.372207 2.134429 75.884658 -4.350223 -9.247149 -16.375421 0.000000 0.000000 0.000000 0.243736 -0.754449 3.234279 1.796594 -14.056119 -72.649970 3.124918 4.155974 75.637105 4.975008 3.575945 -9.460107 0.000000 0.000000 0.000000 1.324592 1.125339 -5.947390 -3.901086 -1.949475 6.077111 1.202894 0.085792 8.638075 0.022969 -0.113837 -0.004936 0.801408 0.383794 10.566316 3.185993 0.421586 -3.674833 0.000000 0.000000 0.000000 2.154549 1.026486 7.476480 -6.852046 -6.983976 3.053497 -57.485795 -17.296462 31.117147 6.935675 -60.836352 -0.088114 0.000000 0.000000 0.000000 -1.220334 2.445358 6.658531 17.249566 2.187025 -1.419548 19.992063 59.733078 -27.065967 -179.747151 56.961561 -177.611884 0.000000 0.000000 0.000000 
